<svg height="511pt" viewBox="-31 1 511 511.999" width="511pt" xmlns="http://www.w3.org/2000/svg"><path d="m264.523438 466.621094v1.941406c0 5.519531 4.476562 10 10 10 5.519531 0 10-4.480469 10-10v-1.941406c9.074218-1.691406 15.972656-9.660156 15.972656-19.21875v-12.914063c0-10.789062-8.777344-19.566406-19.566406-19.566406h-12.378907v-11.324219h11.953125c.230469 5.324219 4.613282 9.566406 9.992188 9.566406 5.519531 0 10-4.476562 10-10 0-9.558593-6.898438-17.527343-15.972656-19.21875v-1.9375c0-5.523437-4.480469-10-10-10-5.523438 0-10 4.476563-10 10v1.9375c-9.074219 1.691407-15.972657 9.660157-15.972657 19.21875v12.191407c0 10.789062 8.777344 19.566406 19.566407 19.566406h12.375v12.046875h-5.960938c-.003906 0-.007812 0-.011719 0-.003906 0-.003906 0-.007812 0h-5.964844v-.746094c0-5.523437-4.476563-10-10-10-5.519531 0-10 4.476563-10 10v1.179688c.003906 9.558594 6.898437 17.527344 15.976563 19.21875zm0 0"/><path d="m120.554688 392.183594v-2.074219c9.183593-1.660156 16.175781-9.699219 16.175781-19.355469v-13.078125c0-10.855469-8.832031-19.6875-19.6875-19.6875h-12.664063v-11.722656h12.355469c.164063 5.378906 4.578125 9.6875 9.996094 9.6875 5.523437 0 10-4.476563 10-10 0-9.65625-6.992188-17.691406-16.175781-19.355469v-2.074218c0-5.523438-4.476563-10-10-10-5.523438 0-10 4.476562-10 10v2.074218c-9.183594 1.660156-16.179688 9.699219-16.179688 19.355469v12.347656c0 10.855469 8.832031 19.6875 19.691406 19.6875h12.660156v12.453125h-12.351562v-.882812c0-5.523438-4.476562-10-10-10s-10 4.476562-10 10v1.195312c0 9.65625 6.992188 17.691406 16.175781 19.355469v2.074219c0 5.519531 4.476563 10 10 10 5.523438 0 10.003907-4.476563 10.003907-10zm0 0"/><path d="m450.261719 241.804688c-.273438-10.976563-2.84375-60.304688-26.523438-110.285157-15.628906-32.988281-37.222656-59.320312-64.183593-78.273437-30.980469-21.777344-68.957032-33.65625-113-35.394532v-7.851562c0-5.523438-4.476563-10-10-10-5.519532 0-10 4.476562-10 10v7.75c-42.597657 1.289062-79.5625 12.230469-109.980469 32.574219-4.589844 3.070312-5.820313 9.28125-2.75 13.871093 3.070312 4.589844 9.28125 5.824219 13.871093 2.753907 22.863282-15.292969 50.085938-24.65625 81.179688-27.96875-26.386719 29.535156-46.078125 70.578125-57.539062 120.398437-3.3125 14.40625-5.589844 27.925782-7.148438 39.75-12.65625-14.765625-31.433594-24.148437-52.363281-24.152344-.011719 0-.015625 0-.023438 0-15.554687 0-29.929687 5.175782-41.480469 13.898438 5.023438-21.132812 13.40625-45.71875 27.40625-68.800781 2.863282-4.722657 1.355469-10.871094-3.367187-13.734375-4.722656-2.863282-10.871094-1.359375-13.734375 3.363281-34.972656 57.671875-37.601562 122.167969-37.792969 132.816406-.007812.417969-.011719.832031-.015625 1.25v.175781c.007813 5.523438 4.480469 9.992188 10 9.992188h.003906c5.519532-.003906 9.996094-4.476562 9.996094-9.996094 0-.011718 0-.019531 0-.027344 0-.121093.007813-.789062.042969-1.945312 1.046875-26.09375 22.601563-46.992188 48.941406-46.992188h.015625c27.007813.007813 48.976563 21.988282 48.96875 48.996094v.03125c0 .105469.011719.207032.015625.3125.183594 5.363282 4.574219 9.660156 9.984375 9.660156 5.191406 0 9.460938-3.960937 9.949219-9.027343.011719-.109375.011719-.222657.019531-.335938.011719-.210937.03125-.421875.03125-.636719 0-.003906 0-.011718 0-.019531 0-38.09375 28.800782-69.574219 65.769532-73.851562v168.460937h-28.710938c-2.179688-19.761718-10.914062-38.070312-25.175781-52.332031-16.589844-16.589844-38.652344-25.726563-62.117188-25.726563-48.4375 0-87.84375 39.40625-87.84375 87.84375 0 27.296876 12.511719 51.722657 32.105469 67.847657h-44.3125c-5.523438 0-10 4.476562-10 10v37.898437c0 5.523438 4.476562 10 10 10h30.878906v27.898438c0 5.523437 4.476563 10 10 10h142.863282.054687 46.671875c.03125 0 .066406.003906.097656.003906h65.511719c.03125 0 .066406-.003906.097656-.003906h86.960938c.027343 0 .054687.003906.078125.003906h30.453125c3.796875 0 7.101562-2.117188 8.792969-5.238281.769531-1.417969 1.207031-3.039063 1.207031-4.765625v-153.429688c0-5.519531-4.476563-10-10-10h-177.613281v-168.113281c15.71875 2.371094 30.320312 9.617187 41.96875 21.003906 14.445312 14.121094 22.402343 32.765625 22.402343 52.503907 0 4.175781 2.710938 8.015624 6.644531 9.410156 3.921876 1.394531 8.398438.164062 11.0625-3.042969 1.472657-1.769531 2.292969-4.070313 2.292969-6.367187.011719-26.554688 23.082031-48.984376 50.390625-48.984376h.015625c13.082031.003907 25.378907 5.105469 34.628907 14.359376 8.648437 8.652343 13.660156 19.96875 14.273437 32.101562.054687 1.589844.0625 2.46875.0625 2.535156v.003906c-.003906 5.519532 4.472656 10 9.992187 10h.007813c5.519531 0 9.996094-4.472656 10-9.992187 0-.011719 0-.019531 0-.035156 0-.71875-.011719-1.429688-.035156-2.144531zm-246.019531 226.859374c3.332031 8.5 7.640624 16.367188 12.796874 23.332032h-12.796874zm-8.003907-43.042968c0 10.480468 1.359375 20.730468 3.898438 30.414062-1.652344-1.210937-3.6875-1.9375-5.894531-1.9375h-30.878907v-27.898437c0-2.171875-.734375-4.34375-2.054687-6.066407 19.066406-13.476562 32.367187-34.332031 36.050781-58.261718.011719-.082032.023437-.164063.039063-.25.085937-.5625.164062-1.125.238281-1.691406.03125-.238282.0625-.476563.089843-.710938.027344-.21875.058594-.433594.085938-.648438h19.71875c-13.464844 17.808594-21.292969 41.699219-21.292969 67.050782zm-153.53125-77.269532c0-37.410156 30.4375-67.84375 67.847657-67.84375 18.121093 0 35.160156 7.058594 47.972656 19.871094 12.8125 12.816406 19.871094 29.851563 19.871094 47.976563 0 5.710937-.726563 11.445312-2.152344 16.976562-6.710938 25.957031-28.441406 45.933594-55.324219 50.074219-.375.058594-.757813.097656-1.136719.148438-3.023437.414062-6.101562.644531-9.234375.644531-37.410156 0-67.84375-30.4375-67.84375-67.847657zm-22.207031 87.847657h122.859375v17.898437h-122.859375zm40.878906 37.898437h91.921875c.019531 0 .039063.003906.058594.003906h30.882813v17.898438h-122.863282zm352.789063-86.332031v75.035156c-14.285157 3.644531-25.550781 14.914063-29.199219 29.195313h-54.367188c13.15625-17.765625 20.800782-41.429688 20.800782-66.371094 0-25.351562-7.824219-49.246094-21.289063-67.058594h54.855469c3.648438 14.285156 14.914062 25.554688 29.199219 29.199219zm-7.835938 104.230469c1.84375-3.273438 4.5625-5.988282 7.835938-7.832032v7.832032zm7.835938-133.429688v7.835938c-3.273438-1.84375-5.992188-4.5625-7.835938-7.835938zm-82.761719 67.054688c0 27.277344-10.730469 52.371094-28.183594 66.375h-58.800781c-17.453125-14.003906-28.179687-39.097656-28.179687-66.375 0-27.832032 11.058593-53.199219 29.046874-67.054688h57.066407c17.988281 13.855469 29.050781 39.222656 29.050781 67.054688zm-94.738281-276.007813c-.039063 0-.074219-.007812-.109375-.007812-.023438 0-.046875.003906-.070313.003906-.441406-.007813-.886719-.015625-1.332031-.015625-26.265625 0-50.058594 10.789062-67.183594 28.167969 8.519532-44.347657 27.152344-101.070313 67.867188-137.5625 22.179687 20.082031 49.582031 57.082031 64.945312 123.410156 1.1875 5.128906 2.230469 10.144531 3.15625 15.015625-.480468-.492188-.945312-.992188-1.4375-1.472656-17.816406-17.417969-41.144531-27.15625-65.835937-27.539063zm144.667969 25.363281c-.007813 0-.015626 0-.019532 0-18.441406 0-35.972656 7.132813-49.351562 20.085938-1.546875 1.496094-2.996094 3.050781-4.378906 4.652344-1.5625-11.914063-3.851563-25.570313-7.210938-40.152344-11.460938-49.75-31.148438-90.816406-57.527344-120.46875 32.742188 3.585938 61.214844 13.730469 84.902344 30.304688 24.082031 16.84375 43.472656 40.429687 57.640625 70.109374 8.066406 16.90625 13.523437 33.925782 17.210937 49.171876-11.847656-8.890626-26.1875-13.699219-41.265624-13.703126zm0 0"/><path d="m83.457031 87.511719c1.601563 3.84375 5.539063 6.378906 9.71875 6.164062 4.117188-.214843 7.769531-3.003906 9.03125-6.929687 1.28125-3.976563-.117187-8.453125-3.433593-10.992188-3.363282-2.578125-8.105469-2.730468-11.636719-.382812-3.917969 2.605468-5.488281 7.800781-3.679688 12.140625zm0 0"/></svg>