<svg id="Capa_1" enable-background="new 0 0 512 512" height="512" viewBox="0 0 512 512" width="512" xmlns="http://www.w3.org/2000/svg"><g><path d="m362.27 276.504c-12.406 0-22.5 10.093-22.5 22.5v54.23c0 12.407 10.094 22.5 22.5 22.5h54.23c12.406 0 22.5-10.093 22.5-22.5v-54.23c0-12.407-10.094-22.5-22.5-22.5zm61.73 22.5v54.23c0 4.136-3.364 7.5-7.5 7.5h-54.23c-4.136 0-7.5-3.364-7.5-7.5v-54.23c0-4.136 3.364-7.5 7.5-7.5h54.23c4.136 0 7.5 3.364 7.5 7.5zm-274.27-22.5h-54.23c-12.406 0-22.5 10.093-22.5 22.5v54.23c0 12.407 10.094 22.5 22.5 22.5h54.23c12.406 0 22.5-10.093 22.5-22.5v-54.23c0-12.407-10.093-22.5-22.5-22.5zm7.5 76.73c0 4.136-3.364 7.5-7.5 7.5h-54.23c-4.136 0-7.5-3.364-7.5-7.5v-54.23c0-4.136 3.364-7.5 7.5-7.5h54.23c4.136 0 7.5 3.364 7.5 7.5zm333.867 106.683c-6.587-5.284-14.129-8.936-22.097-10.86v-32.742c0-4.142-3.357-7.5-7.5-7.5s-7.5 3.358-7.5 7.5v31.201c-3.581.109-7.181.535-10.76 1.33-6.221 1.382-12.545 2.223-18.798 2.5-17.667.784-28.292-3.045-40.596-7.479-12.322-4.441-26.274-9.47-48.348-9.47-.139 0-.281 0-.42 0-3.652.01-7.075.16-10.31.418v-120.811c0-20.678-16.822-37.5-37.5-37.5h-62.538c-20.678 0-37.5 16.822-37.5 37.5v123.228c-8.318-3.6-18.214-6.226-32.239-5.968-18.778.336-30.782 5.655-41.373 10.348-10.023 4.441-18.68 8.277-32.59 8.463-4.849.07-9.744-.336-14.6-1.193-2.809-.496-5.625-.762-8.429-.84v-190.832c5.365 6.005 12.969 9.915 21.395 10.215 8.377.304 16.275-2.733 22.284-8.532 6.011-5.801 9.321-13.596 9.321-21.948v-34.51c0-5.026 2.451-9.759 6.557-12.659 4.822-3.406 10.829-3.819 16.071-1.104s8.372 7.86 8.372 13.764v33.958c0 16.534 13.187 30.455 29.395 31.032.375.014.749.02 1.121.02 7.945 0 15.423-3.013 21.163-8.552 6.011-5.801 9.321-13.596 9.321-21.948v-103.654c0-2.432 1.186-4.722 3.173-6.125l48.369-34.174c.873-.615 2.044-.615 2.915 0l193.616 136.791c.956.675 1.936 1.285 2.927 1.866v154.665c0 4.142 3.357 7.5 7.5 7.5s7.5-3.358 7.5-7.5v-149.635c7.332.825 14.863-.522 21.843-4.137 13.05-6.759 21.157-20.192 21.157-35.057 0-12.87-6.214-24.944-16.621-32.297l-229.266-161.978c-6.049-4.273-14.175-4.273-20.226 0l-65.198 46.063c-3.383 2.39-4.188 7.07-1.797 10.453 2.389 3.382 7.066 4.188 10.453 1.798l65.197-46.063c.887-.625 2.03-.625 2.915 0l229.267 161.978c6.436 4.546 10.277 12.041 10.277 20.046 0 9.377-4.881 17.503-13.056 21.737-7.884 4.083-16.937 3.452-24.216-1.69l-193.616-136.791c-6.049-4.273-14.177-4.273-20.226 0l-48.37 34.174c-5.959 4.21-9.517 11.08-9.517 18.376v103.651c0 4.245-1.683 8.206-4.738 11.155-3.053 2.946-7.054 4.491-11.334 4.335-8.231-.293-14.928-7.489-14.928-16.042v-33.958c0-11.443-6.313-21.821-16.474-27.083-10.16-5.262-22.278-4.43-31.626 2.173-8.078 5.708-12.9 15.02-12.9 24.91v34.51c0 4.245-1.683 8.206-4.738 11.155-3.053 2.946-7.054 4.491-11.334 4.335-8.231-.292-14.927-7.488-14.927-16.04 0-.177-.006-.354-.019-.53l-.257-3.626c-.303-4.271-2.537-8.055-6.131-10.381-3.591-2.324-7.949-2.813-11.966-1.341-7.019 2.573-14.99 1.469-21.321-2.954-6.549-4.575-10.306-11.892-10.306-20.074 0-8.006 3.842-15.5 10.277-20.046l142.507-100.682c3.383-2.39 4.188-7.07 1.797-10.453-2.39-3.382-7.066-4.188-10.453-1.798l-34.128 24.111v-20.375c8.466-1.22 15-8.502 15-17.3v-10c0-9.649-7.851-17.5-17.5-17.5h-77c-9.649 0-17.5 7.851-17.5 17.5v10c0 8.798 6.534 16.081 15 17.3v78.309l-26.379 18.637c-10.407 7.353-16.621 19.427-16.621 32.297 0 13.152 6.094 24.952 16.718 32.372 7.798 5.447 17.166 7.783 26.282 6.785v212.975c-8.388 2.031-16.289 5.951-23.059 11.631-12.672 10.633-19.941 26.228-19.941 42.787v.457c0 4.142 3.357 7.5 7.5 7.5s7.5-3.358 7.5-7.5v-.457c0-12.113 5.314-23.52 14.582-31.295 9.47-7.944 21.95-11.254 34.239-9.088 5.78 1.021 11.638 1.499 17.408 1.421 16.979-.228 27.902-5.068 38.465-9.749 10.193-4.516 19.821-8.782 35.566-9.064 16.824-.317 25.948 4.237 35.854 9.728.023.013.045.026.069.038.561.311 1.123.624 1.69.94 10.611 5.913 22.639 12.614 43.786 14.353 24.104 1.985 37.894-4.357 51.232-10.487 12.162-5.59 24.739-11.371 47.229-11.436 19.674-.091 31.314 4.139 43.639 8.581 12.644 4.557 25.709 9.261 46.348 8.353 7.12-.316 14.314-1.272 21.384-2.842 12.485-2.775 25.322.188 35.218 8.127 9.717 7.795 15.29 19.422 15.29 31.897v.979c0 4.142 3.357 7.5 7.5 7.5s7.5-3.358 7.5-7.5v-.979c.001-17.049-7.618-32.94-20.902-43.597zm-381.097-360.7-52 36.738v-37.511h16.171c4.143 0 7.5-3.358 7.5-7.5s-3.357-7.5-7.5-7.5h-16.171v-15h52zm-67-58.273c0-1.378 1.121-2.5 2.5-2.5h77c1.379 0 2.5 1.122 2.5 2.5v10c0 1.378-1.121 2.5-2.5 2.5h-77c-1.379 0-2.5-1.122-2.5-2.5zm266.77 396.078c-11.485 2.531-20.144 6.506-28.142 10.182-12.64 5.81-23.553 10.826-43.739 9.167-16.704-1.373-26.195-6.128-35.658-11.365v-131.002c0-12.407 10.094-22.5 22.5-22.5h62.539c12.406 0 22.5 10.093 22.5 22.5zm-93.27-269.578c0 21.78 17.72 39.5 39.5 39.5s39.5-17.72 39.5-39.5-17.72-39.5-39.5-39.5-39.5 17.72-39.5 39.5zm64 0c0 13.509-10.99 24.5-24.5 24.5s-24.5-10.991-24.5-24.5 10.99-24.5 24.5-24.5 24.5 10.991 24.5 24.5zm6.77 184.269c-4.143 0-7.5 3.358-7.5 7.5v15.634c0 4.142 3.357 7.5 7.5 7.5s7.5-3.358 7.5-7.5v-15.634c0-4.142-3.358-7.5-7.5-7.5z"/></g></svg>