<?xml version="1.0" encoding="iso-8859-1"?>
<!-- Generator: Adobe Illustrator 18.0.0, SVG Export Plug-In . SVG Version: 6.00 Build 0)  -->
<!DOCTYPE svg PUBLIC "-//W3C//DTD SVG 1.1//EN" "http://www.w3.org/Graphics/SVG/1.1/DTD/svg11.dtd">
<svg version="1.1" id="Capa_1" xmlns="http://www.w3.org/2000/svg" xmlns:xlink="http://www.w3.org/1999/xlink" x="0px" y="0px"
	 viewBox="0 0 428.371 428.371" style="enable-background:new 0 0 428.371 428.371;" xml:space="preserve">
<g>
	<path d="M428.219,355.101l-43.69-190.51c-0.355-1.551-1.313-2.897-2.662-3.743s-2.978-1.118-4.528-0.764
		c-13.359,3.066-25.862,8.694-36.884,16.522l-28.167-29.573c-1.133-1.189-2.703-1.862-4.345-1.862c-0.002,0-0.005,0-0.008,0
		c-1.645,0.002-3.216,0.679-4.348,1.873l-25.563,26.977L266.738,68.798c-0.327-3.048-2.9-5.36-5.966-5.36H139.469
		c-3.314,0-6,2.687-6,6v87.599H64.32c-3.313,0-6,2.686-6,6v69.998C25.521,236.941,0,264.908,0,298.742
		c0,36.498,29.693,66.191,66.19,66.191h234.197c16.801,0,32.15-6.303,43.834-16.655c16.891,10.914,36.487,16.63,56.346,16.63
		c7.724,0,15.486-0.863,23.143-2.617c1.551-0.356,2.897-1.313,3.743-2.661C428.299,358.281,428.575,356.652,428.219,355.101z
		 M307.955,159.883l23.112,24.266c-1.452,1.311-2.88,2.654-4.261,4.051c-12.27,12.414-21.181,27.67-25.986,44.362
		c-0.145-0.001-0.287-0.011-0.432-0.011h-16.084l-4.597-42.857L307.955,159.883z M145.469,75.438h109.913l16.853,157.113H145.469
		V75.438z M133.469,169.037v63.514H70.32v-63.514H133.469z M300.388,352.933H66.19c-29.881,0-54.19-24.31-54.19-54.191
		c0-29.823,24.216-54.092,54.017-54.187l234.37-0.004c29.881,0,54.191,24.31,54.191,54.191S330.269,352.933,300.388,352.933z
		 M352.598,339.355c8.749-11.222,13.981-25.314,13.981-40.613c0-32.194-23.109-59.08-53.606-64.976
		c9.124-29.238,31.869-51.713,61.244-60.457l40.921,178.434C393.495,355.23,371.291,350.81,352.598,339.355z"/>
	<path d="M256.035,211.995l-12.58-117.282c-0.327-3.048-2.9-5.36-5.966-5.36h-72.104c-3.313,0-6,2.687-6,6v117.282
		c0,3.313,2.687,6,6,6h84.684c1.703,0,3.325-0.724,4.463-1.99C255.67,215.379,256.216,213.689,256.035,211.995z M171.385,206.635
		V101.354h60.713l11.292,105.282H171.385z"/>
	<path d="M69.096,267.411c-17.598,0-31.916,14.317-31.916,31.916s14.317,31.916,31.916,31.916s31.916-14.317,31.916-31.916
		S86.694,267.411,69.096,267.411z M69.096,319.242c-10.981,0-19.916-8.934-19.916-19.916s8.934-19.916,19.916-19.916
		s19.916,8.934,19.916,19.916S80.077,319.242,69.096,319.242z"/>
	<path d="M303.347,267.411c-17.598,0-31.915,14.317-31.915,31.916s14.317,31.916,31.915,31.916s31.916-14.317,31.916-31.916
		S320.945,267.411,303.347,267.411z M303.347,319.242c-10.981,0-19.915-8.934-19.915-19.916s8.934-19.916,19.915-19.916
		c10.981,0,19.916,8.934,19.916,19.916S314.328,319.242,303.347,319.242z"/>
	<path d="M83.831,220.933c3.313,0,6-2.687,6-6v-28c0-3.313-2.687-6-6-6s-6,2.687-6,6v28
		C77.831,218.246,80.518,220.933,83.831,220.933z"/>
	<path d="M101.831,220.933c3.313,0,6-2.687,6-6v-28c0-3.313-2.687-6-6-6s-6,2.687-6,6v28
		C95.831,218.246,98.518,220.933,101.831,220.933z"/>
</g>
<g>
</g>
<g>
</g>
<g>
</g>
<g>
</g>
<g>
</g>
<g>
</g>
<g>
</g>
<g>
</g>
<g>
</g>
<g>
</g>
<g>
</g>
<g>
</g>
<g>
</g>
<g>
</g>
<g>
</g>
</svg>
